<?xml version="1.0" encoding="UTF-8"?>
<svg width="17px" height="18px" viewBox="0 0 17 18" version="1.1" xmlns="http://www.w3.org/2000/svg" xmlns:xlink="http://www.w3.org/1999/xlink">
    <!-- Generator: Sketch 47.1 (45422) - http://www.bohemiancoding.com/sketch -->
    <title>Fill 1</title>
    <desc>Created with Sketch.</desc>
    <defs></defs>
    <g id="Page-1" stroke="none" stroke-width="1" fill="none" fill-rule="evenodd">
        <g id="09_cookie" transform="translate(-1225.000000, -800.000000)" fill="#FFFFFF">
            <g id="Group" transform="translate(928.000000, 694.000000)">
                <path d="M304.687023,115.302629 L297.162104,122.827548 C296.953049,123.036603 296.953049,123.375288 297.162104,123.584343 C297.266499,123.689004 297.403567,123.741068 297.540369,123.741068 C297.677437,123.741068 297.814239,123.689004 297.918634,123.584343 L305.500133,116.002844 L313.081632,123.584343 C313.186292,123.689004 313.323095,123.741068 313.459631,123.741068 C313.596699,123.741068 313.733767,123.689004 313.838162,123.584343 C314.046951,123.375288 314.046951,123.036603 313.838162,122.827548 L306.313508,115.302629 L313.843209,107.772397 C314.052264,107.563342 314.052264,107.224657 313.843209,107.015602 C313.634154,106.806813 313.295203,106.806813 313.086679,107.015602 L305.500398,114.602414 L297.913321,107.015868 C297.704266,106.807078 297.365846,106.807078 297.156791,107.015868 C296.947736,107.224923 296.947736,107.563608 297.156791,107.772663 L304.687023,115.302629 Z" id="Fill-1"></path>
            </g>
        </g>
    </g>
</svg>