<?xml version="1.0" encoding="UTF-8"?>
<svg width="17px" height="17px" viewBox="0 0 17 17" version="1.1" xmlns="http://www.w3.org/2000/svg" xmlns:xlink="http://www.w3.org/1999/xlink">
    <!-- Generator: Sketch 47.1 (45422) - http://www.bohemiancoding.com/sketch -->
    <title>Fill 1</title>
    <desc>Created with Sketch.</desc>
    <defs></defs>
    <g id="Page-1" stroke="none" stroke-width="1" fill="none" fill-rule="evenodd">
        <g id="09_newsletter" transform="translate(-1162.000000, -225.000000)" fill="#1F1F1F">
            <path d="M1169.68702,233.443619 L1162.1621,240.968538 C1161.95305,241.177593 1161.95305,241.516278 1162.1621,241.725333 C1162.2665,241.829993 1162.40357,241.882058 1162.54037,241.882058 C1162.67744,241.882058 1162.81424,241.829993 1162.91863,241.725333 L1170.50013,234.143834 L1178.08163,241.725333 C1178.18629,241.829993 1178.32309,241.882058 1178.45963,241.882058 C1178.5967,241.882058 1178.73377,241.829993 1178.83816,241.725333 C1179.04695,241.516278 1179.04695,241.177593 1178.83816,240.968538 L1171.31351,233.443619 L1178.84321,225.913387 C1179.05226,225.704332 1179.05226,225.365647 1178.84321,225.156592 C1178.63415,224.947803 1178.2952,224.947803 1178.08668,225.156592 L1170.5004,232.743404 L1162.91332,225.156858 C1162.70427,224.948068 1162.36585,224.948068 1162.15679,225.156858 C1161.94774,225.365913 1161.94774,225.704598 1162.15679,225.913653 L1169.68702,233.443619 Z" id="Fill-1"></path>
        </g>
    </g>
</svg>