<svg xmlns="http://www.w3.org/2000/svg" xmlns:xlink="http://www.w3.org/1999/xlink" width="50" height="50" viewBox="0 0 50 50">
    <defs>
        <circle id="a" cx="24" cy="24" r="24"/>
    </defs>
    <g fill="none" fill-rule="evenodd" transform="translate(1 1)">
        <mask id="b" fill="#fff">
            <use xlink:href="#a"/>
        </mask>
        <use stroke="#333E48" stroke-width="2" xlink:href="#a"/>
        <g fill="#333E48" mask="url(#b)">
            <path d="M19.75 27.357c-.382-.495-1.119-.625-1.503-.825-.388-.192-2.945-1.016-3.56-.59-.606.428-1.442.688-1.766 0-.318-.691-.478-.789-.927-.886-.448-.1-.224-.62-.254-1.08-.036-.462-.291-.954-.612-.624-.321.33-1.412 1.185-1.57.752-.16-.425-.932-2.196.225-2.531 1.151-.325 2.114-.13 2.405.167.288.29.51 1.117.866 1.017.355-.1.16-.73.288-1.247.127-.522.966-1.214 1.345-1.933.385-.728.449-1.155.927-1.35.488-.194.742-.457 1.19-.787.452-.33 1.152-.622 1.415-.79.257-.167 1.409-.724 1.79-.624.385.1.64-.032.322-.59-.321-.557-.737-2.233-1.345-2.988-.61-.749-.676-.952-.964-1.668-.287-.728-.611-1.35-.835-.858-.225.492-.703 1.15-.96.525-.256-.625-.225-.595-.546-.887-.318-.295-.579-.363-1.024-.495-.449-.133-.897.035-.867.457.03.43-.42 1.19-.127 1.75.288.56.545 1.15.158 1.346-.382.195 0 1.38-.382 1.345-.385-.03-.576.035-.576-.395 0-.422.191-1.08-.517-1.08-.703 0-1.121-.359-1.633-.724-.515-.36-.93-.165-.803-.982.127-.825-.06-1.117.512-1.576.579-.457.709-.725 1.124-.525.418.197.703.197.966-.033.254-.23.733-.137.733-.427 0-.295-.545-.295-.479-.784.061-.503.321-.233.416-1.055.094-.822-.61-2.069-1.315-1.904-.709.163-1.794 1.117-2.018.687-.227-.424-.675-.23-1.541.068-.867.297-4.457-.292-4.711-.592 0 0-.612-.425-.933-.198-.318.23-1.602.133-1.987.07-.388-.07-.74.425-1.215.263-.487-.165-2.184-.495-2.566-.757-.39-.265-.969-.265-1.218-.395-.257-.133-1.19-.198-1.378.065-.194.262-.9.72-1.254 1.049-.351.33-.764.265-.415.952.351.692-.897 1.12-.579 1.871.319.752-.063 2.789 1.218 3.183 1.285.395 2.342.625 3.078.038.742-.595 1.863-.595 2.214.062.352.658.545 1.642 1.697 2.2 1.151.559 2.148 2.168 2.084 2.885-.06.724.036 3.118 1.215 4.497 1.19 1.376 2.408 3.878 2.5 3.283.096-.592.096-1.184.356-.754.252.424.928 1.741 2.018 1.971 1.093.23 1.639.295 2.051.692a4.06 4.06 0 0 0 1.218.822c.448.195 1.539.79 1.763 1.182.227.395.13.92-.097 1.51-.221.594-.479 1.184-.16 1.744.323.557.996 2.166 1.544 2.525.545.366 1.085.955.958 1.774-.128.82-.737 4.333-.673 5.123.066.781-.733 3.377-.094 4.43.64 1.049 1.735 1.378 2.214 1.243.479-.127.097-.167-.13-.654a1.81 1.81 0 0 1 .064-1.577c.26-.46.26-.722.13-1.247-.13-.527-.064-.822.254-1.214.324-.395 1.67-1.447 2.087-1.904.413-.46 3.048-3.613 3.4-3.875.35-.262 1.15-.887 1.41-1.871.258-.98 1.185-2.921.546-3.413-.642-.495-3.014-.863-3.111-.925-.094-.062-1.666-1.444-2.057-1.934zM28.294.36H18.037c.123.517.567 2.435.483 3.21-.098.901.196.58.453.936.26.354.196.903.033 1.316-.164.418-.26 1.353.263 2.447.514 1.091 1.13 2.474 1.646 2.54.523.06.392.77.75.511.354-.26.416-.831.712-1.671.29-.832.29-1.446 1.037-1.865.746-.418 2.814-1.766 3.267-2.25.456-.485.973-.676.81-1.51-.167-.837-.327-1.513-.07-1.997.185-.342.632-1.198.873-1.666zM73.056 3.065c-.967.23-2.697-.528-2.982-.69-.282-.163-2.602-.877-3.828-.918-.61-.021-3.172-.593-4.24-1.053-1.07-.463-1.976-2.725-4.018-2.365-.263.048-2.73.395-3.359.955-.623.56-.91 1.215-1.255 1.345-.344.133-1.35.065-1.35.56 0 .493.347 2.01-.06 1.709-.41-.295-.819-.986-1.003-.458-.187.53-.51.82-.694.623-.184-.195-1.133 0-1.255.327-.128.33-1.35 1.083-1.884 1.186-.532.1-.754.36-1.036.492-.282.13-2.421 1.118-2.825.756-.41-.358-.534-.128-.786-.065 0 0-.754-.133-1.226-.723-.471-.587-.566-.395-1.098-.95-.531-.558-.658-1.115-1.19-.885-.531.227-2.792 2.555-3.673 3.61-.876 1.05-2.448 2.136-1.665 2.886.789.755 1.193.658 1.29 1.083.098.427.19.89.315 1.053.125.17.876.755 1.255-.033.382-.79.44-1.348.879-1.215.439.13.531.427.309 1.018-.22.595-.374 1.515-1.128 1.477-.751-.032-1.567-.492-1.822-.39-.25.098-.401.328-.689.558-.282.23-1.163 1.308-1.76 1.475-.593.166-1.314.03-.907.526.406.49 1.003 1.578.439 1.54-.564-.033-1.508-.13-1.57.427-.062.558-.312.89-.187 1.28.125.399.534 1.156 1.033.888.51-.262 1.48-.52 1.73-1.117.252-.593.536-1.246 1.163-1.21.626.032 2.136.85 2.038 1.15-.092.29-.403.983-.03.753.378-.233.69-.496.909-.593.22-.1.51.33.599.498.092.165.724.49.846-.04.127-.52.252-.128.626.04.38.165 1.508.29 1.66.422.162.135.506.525.062 1.056-.437.52-.941.722-1.662.33-.724-.398-1.51.33-2.318-.07-.822-.39-.442-.948-1.415-1.346-.968-.392-3.17.098-3.864.298-.691.192-.72.26-1.003.587-.282.333-2.133 2.466-2.133 3.682 0 1.21.688 4.5 2.917 4.173 2.23-.33 3.581-.138 3.332.517-.255.66-.125.826.282 1.578.406.758 1.352 5.785 1.507 6.605.163.82-.122 1.868.914 1.708 1.04-.168 2.136-.428 2.572-1.378.442-.958.51-2.035 1.074-2.593.567-.56 1.255-.56 1.315-1.348.06-.79-.157-2.663.22-3.096.38-.42 2.133-2.399 2.32-3.186.19-.788.44-.986-.282-.986-.72 0-1.946-.094-2.296-.75-.344-.649-1.163-1.897-1.163-2.195 0-.29.504-.26.75.36.256.626 1.129 2.504 2.135 2.1 1.005-.394 2.42-.852 2.448-1.474.032-.626-.437-1.348-.941-1.313-.507.038-1.038-.33-1.038-.69 0-.36.092-.228.69 0 .6.23.784.625 1.698.69.91.068 1.947.955 2.445 1.348.505.398 1.38 3.094 1.603 3.35.217.266.477.266.694-.259.22-.53 1.16-2.203 1.697-2.666.531-.46.564-1.083.873-.688.314.396 1.664 1.378 1.76 1.97.094.596-.063 1.874.219 1.479.282-.395.504-1.21.748-.85.255.363.255.92.846.493.602-.42 1.638-.59 1.074-1.51-.564-.918-.187-1.476.162-1.514.345-.035 2.7-.46 2.763-1.743.062-1.278-.819-1.968-.401-2.626.4-.66 1-1.247 1.127-.858.125.398-.314 1.676.247 1.478.57-.192 1.228-.192 1.228-.593 0-.397-.127-1.38.128-1.643.252-.262 2.1-1.997 2.32-2.687.22-.696.63-1.286.282-1.806-.347-.528-.94-.368-.471-1.018.471-.657 1.255-1.269 1.854-1.315 1.906-.17 1.37 2.184 1.402 2.71.032.527.032 1.84.314 1.182.282-.652.61-1.464 1.177-2.022.566-.552.878-.92.913-1.41.033-.49.057-.658.597-.917.534-.268 2.887-1.189 3.107-1.806.22-.625-.282-1.188.282-1.148.564.028 1.098.65 1.382.323.282-.323.911-.918.879-1.248-.038-.341-.95-1.094-1.331-1.359-.377-.263-2.636-2.068-3.612-1.838z"/>
        </g>
    </g>
</svg>
