<?xml version="1.0" encoding="UTF-8"?>
<svg width="187px" height="25px" viewBox="0 0 187 25" version="1.1" xmlns="http://www.w3.org/2000/svg" xmlns:xlink="http://www.w3.org/1999/xlink">
    <!-- Generator: Sketch 47.1 (45422) - http://www.bohemiancoding.com/sketch -->
    <title>logo</title>
    <desc>Created with Sketch.</desc>
    <defs></defs>
    <g id="Page-1" stroke="none" stroke-width="1" fill="none" fill-rule="evenodd">
        <g id="T08_post-blog" transform="translate(-183.000000, -25.000000)" fill="#2C353E">
            <g id="HEADER" transform="translate(-28.000000, 0.000000)">
                <g id="logo" transform="translate(211.000000, 25.000000)">
                    <path d="M5.99200507,2.92624911 C4.74592182,4.60607117 3.17116074,5.95603559 1.5319169,7.17516726 L1.20333118,6.94431317 C2.05625384,5.26439858 2.87592182,3.58448399 3.6955898,1.93778648 C6.61407946,2.06954448 9.56600803,2.06954448 12.5178445,2.06954448 C15.3717593,2.06954448 18.224108,2.06954448 21.0780228,1.93778648 C20.8804292,3.84762989 20.6515154,5.79189324 20.5869405,7.73504626 L20.1271785,7.73504626 C19.2743479,6.22029181 18.7167563,4.57276157 18.3235957,2.92624911 L13.8635075,2.92624911 C13.306008,4.73782918 7.53341936,21.1097794 7.53341936,21.5047758 C7.53341936,22.460484 11.3381785,23.0529324 12.1246839,23.1522135 L12.1246839,23.613089 C11.1405849,23.5148256 7.69766616,23.481331 5.46766813,23.481331 C3.66408537,23.481331 1.85866025,23.5148256 0.0550774877,23.613089 L0.0550774877,23.1522135 C1.36757798,22.8879573 2.81116271,22.6905979 3.95775828,22.032363 C4.8104967,21.5381779 10.2231795,4.83618505 10.8121834,2.92624911 L5.99200507,2.92624911 Z" id="Fill-5"></path>
                    <path d="M22.5896553,12.0175794 C20.8839942,12.0175794 19.3757425,15.3448391 18.9807395,16.6625117 C20.5884789,16.4314726 23.638237,14.5875082 23.638237,12.7750954 C23.638237,12.1491523 23.1786592,12.0175794 22.5896553,12.0175794 M20.4574868,22.4272021 C22.3922459,22.4272021 23.4739902,21.1421915 24.5575769,20.2197929 C24.7533282,20.055558 24.917575,19.8247039 24.9839922,19.8247039 C25.0819139,19.8247039 25.212906,19.8906754 25.212906,19.9564619 C25.212906,20.4180776 21.7700794,23.8762626 18.4896572,23.8762626 C16.6860745,23.8762626 15.5045661,22.8556007 15.5045661,21.0106185 C15.5045661,16.7615153 20.9818237,10.7001843 24.4911597,10.7001843 C25.5414917,10.7001843 26.0658287,11.2600633 26.0658287,12.2809103 C26.0658287,15.1798641 20.9485691,16.8274868 18.7518257,17.3216719 C18.3917356,17.9799068 18.1295671,19.1655438 18.1295671,19.8581986 C18.1295671,21.4064477 18.7848962,22.4272021 20.4574868,22.4272021" id="Fill-7"></path>
                    <path d="M29.0176467,18.7706306 C29.0509014,18.8698192 29.0840639,18.9681751 29.0840639,19.165627 C29.0840639,19.8906662 28.3953881,20.4506377 27.6736418,20.7139687 C27.6736418,22.1964313 28.3623176,22.9539473 29.8058102,22.9539473 C31.838491,22.9539473 33.0198152,21.1421822 33.3152383,19.099748 C33.5441521,17.5190221 33.5441521,15.8714918 33.7083989,14.2575488 L29.0176467,18.7706306 Z M28.9198171,18.3757267 C33.41316,14.2249794 35.5766487,11.1608655 36.5292433,10.20599 C36.6602354,10.074232 36.8891492,9.81090107 36.9869787,9.81090107 C37.053396,9.81090107 37.2176428,9.84347046 37.2176428,10.1068014 C37.2176428,10.2383744 36.5605634,11.4909082 36.3316497,12.2809011 C36.0694812,13.1374206 36.1342403,14.5540968 36.0031561,16.267321 C35.7077329,20.0880256 31.3474088,23.8762534 28.7887329,23.8762534 C26.8873206,23.8762534 25.7705713,22.7564028 25.7705713,20.8455416 C25.7705713,19.6597196 26.1655743,17.7497836 27.7068965,17.7497836 C28.2959004,17.7497836 28.5265644,17.9798975 28.9198171,18.3757267 L28.9198171,18.3757267 Z" id="Fill-9"></path>
                    <path d="M40.7271445,21.208126 C40.7271445,22.4930441 41.3509692,23.0864178 42.5637977,23.0864178 C45.5804854,23.0864178 47.5815697,15.8389872 47.5815697,13.6315779 C47.5815697,12.3467523 46.959311,11.7542114 45.7447322,11.7542114 C42.7281367,11.7542114 40.7271445,19.0014569 40.7271445,21.208126 M40.989313,23.8762256 C38.7259682,23.8762256 38.1685608,22.6246171 38.1685608,20.8456064 C38.1685608,16.4314356 43.9742199,10.7001473 47.3194012,10.7001473 C49.5825618,10.7001473 50.1400613,11.9515708 50.1400613,13.7307665 C50.1400613,18.1449374 45.2203032,23.8762256 40.989313,23.8762256" id="Fill-11"></path>
                    <path d="M55.1262827,11.0950698 L57.5537822,11.0950698 L55.7483571,15.8715751 L55.8147743,15.9373616 C56.8634482,14.125689 58.6356187,10.7001658 61.0944384,10.7001658 C62.3091093,10.7001658 63.1602817,11.4908989 63.1602817,12.7425075 C63.1602817,13.6649986 62.7356167,14.9166996 61.587363,14.9166996 C60.8656167,14.9166996 60.3411876,14.4225146 60.3411876,13.6973829 C60.3411876,13.302479 60.537031,12.940052 60.7346246,12.6107495 C60.4391093,12.3142014 59.9462768,12.2808918 59.5531162,12.2808918 C56.7986891,12.2808918 53.978029,21.273931 53.3227,23.4813402 L51.0926098,23.4813402 L55.1262827,11.0950698 Z" id="Fill-13"></path>
                    <path d="M72.4107756,3.02437367 C72.4107756,3.97943416 71.6890293,4.83613879 70.8361067,4.83613879 C69.8852623,4.83613879 69.3278549,4.44104982 69.3278549,3.41946263 C69.3278549,2.46440214 70.0496012,1.60788256 70.9025239,1.60788256 C71.8533682,1.60788256 72.4107756,2.00371174 72.4107756,3.02437367 L72.4107756,3.02437367 Z M69.5900234,10.7002028 C68.8682771,13.1708505 65.8849362,19.2315338 65.8849362,21.2738754 C65.8849362,21.9331281 66.6049323,22.3614342 67.2289411,22.3614342 C68.9346943,22.3614342 70.4429461,20.0222669 70.802852,20.0222669 C70.9340283,20.0222669 70.9670988,20.0880534 70.9670988,20.2198114 C70.9670988,20.6480249 67.9175249,23.8762811 65.5896973,23.8762811 C64.539181,23.8762811 63.1289431,23.2179537 63.1289431,21.9663452 C63.1289431,21.3396619 64.8676746,17.1898399 67.0646943,10.7002028 L69.5900234,10.7002028 Z" id="Fill-15"></path>
                    <path d="M88.4492405,10.3710299 C88.6780622,10.3710299 88.711409,10.4368164 88.711409,10.5683893 C88.711409,10.7325317 88.3828233,10.7983181 87.661077,11.0625744 C84.2828253,12.2809658 81.1018908,16.7282612 81.1018908,20.318852 C81.1018908,21.3731011 81.2995765,22.8221616 82.6433972,22.8221616 C87.0388184,22.8221616 90.0221593,9.05270961 90.0221593,5.72609751 C90.0221593,3.15616868 89.2024913,0.487883986 86.1527332,0.487883986 C82.4791504,0.487883986 81.1352376,3.91359217 80.7418928,3.91359217 C80.6108085,3.91359217 80.5443913,3.84771317 80.5443913,3.71604769 C80.5443913,3.38693025 82.6766519,0.0271935943 86.4480642,0.0271935943 C90.5480622,0.0271935943 92.3185745,3.38693025 92.3185745,7.14277367 C92.3185745,14.9824676 85.8242396,23.8762256 81.2995765,23.8762256 C79.3963218,23.8762256 78.543307,22.4272577 78.543307,20.6479694 C78.543307,14.0933786 86.481411,10.3710299 88.4492405,10.3710299" id="Fill-17"></path>
                    <path d="M95.6653218,7.53771459 C97.1736657,6.61522349 99.0769203,5.29773594 99.0769203,3.3534726 C99.0769203,2.66202064 98.4197489,2.06947972 97.7644199,1.9702911 L97.7644199,1.87110249 C98.4861662,1.17955801 99.174842,0.553614947 100.223332,0.553614947 C101.011495,0.553614947 101.633754,1.21277509 101.633754,2.00369324 C101.633754,4.83612028 98.190743,6.84598505 95.9275824,7.86683203 L95.6653218,7.53771459 Z" id="Fill-19"></path>
                    <path d="M113.407882,2.26708897 C107.570626,2.26708897 104.127615,14.2575302 104.127615,18.3757082 C104.127615,20.9122349 104.947191,23.086427 107.832703,23.086427 C113.769538,23.086427 117.212641,11.0950605 117.212641,6.97780783 C117.212641,4.44109609 116.392697,2.26708897 113.407882,2.26708897 M120.29547,7.76854093 C120.29547,14.5206762 113.867368,24.1404911 106.521952,24.1404911 C102.717193,24.1404911 101.044787,21.4389893 101.044787,17.7823345 C101.044787,11.029274 107.472704,1.41038434 114.818304,1.41038434 C118.622787,1.41038434 120.29547,4.11188612 120.29547,7.76854093" id="Fill-21"></path>
                    <path d="M124.330819,11.0950698 L126.758318,11.0950698 L124.954644,15.8715751 L125.021061,15.9373616 C126.069827,14.125689 127.840155,10.7001658 130.300817,10.7001658 C131.51383,10.7001658 132.366568,11.4908989 132.366568,12.7425075 C132.366568,13.6649986 131.940153,14.9166996 130.791899,14.9166996 C130.070153,14.9166996 129.545908,14.4225146 129.545908,13.6973829 C129.545908,13.302479 129.74341,12.940052 129.939161,12.6107495 C129.645396,12.3142014 129.152655,12.2808918 128.759403,12.2808918 C126.005068,12.2808918 123.184408,21.273931 122.527236,23.4813402 L120.297238,23.4813402 L124.330819,11.0950698 Z" id="Fill-23"></path>
                    <path d="M141.615404,3.02437367 C141.615404,3.97943416 140.895408,4.83613879 140.042485,4.83613879 C139.091641,4.83613879 138.534234,4.44104982 138.534234,3.41946263 C138.534234,2.46440214 139.254322,1.60788256 140.10706,1.60788256 C141.057904,1.60788256 141.615404,2.00371174 141.615404,3.02437367 L141.615404,3.02437367 Z M138.79631,10.7002028 C138.074564,13.1708505 135.089472,19.2315338 135.089472,21.2738754 C135.089472,21.9331281 135.811219,22.3614342 136.433477,22.3614342 C138.139231,22.3614342 139.649233,20.0222669 140.009138,20.0222669 C140.140315,20.0222669 140.173477,20.0880534 140.173477,20.2198114 C140.173477,20.6480249 137.123719,23.8762811 134.794234,23.8762811 C133.745468,23.8762811 132.335137,23.2179537 132.335137,21.9663452 C132.335137,21.3396619 134.072395,17.1898399 136.270981,10.7002028 L138.79631,10.7002028 Z" id="Fill-25"></path>
                    <path d="M147.061176,12.0175794 C145.355238,12.0175794 143.847171,15.3448391 143.453918,16.6625117 C145.059999,16.4314726 148.109757,14.5875082 148.109757,12.7750954 C148.109757,12.1491523 147.651746,12.0175794 147.061176,12.0175794 M144.929007,22.4272021 C146.863582,22.4272021 147.947169,21.1421915 149.029005,20.2197929 C149.224664,20.055558 149.389003,19.8247039 149.455513,19.8247039 C149.55325,19.8247039 149.684426,19.8906754 149.684426,19.9564619 C149.684426,20.4180776 146.2416,23.8762626 142.960993,23.8762626 C141.157411,23.8762626 139.976086,22.8556007 139.976086,21.0106185 C139.976086,16.7615153 145.453252,10.7001843 148.96268,10.7001843 C150.013012,10.7001843 150.537165,11.2600633 150.537165,12.2809103 C150.537165,15.1798641 145.421655,16.8274868 143.223162,17.3216719 C142.863348,17.9799068 142.601087,19.1655438 142.601087,19.8581986 C142.601087,21.4064477 143.256417,22.4272021 144.929007,22.4272021" id="Fill-27"></path>
                    <path d="M157.818042,11.0950698 L155.523469,17.3540377 L155.588044,17.4197317 C156.83597,15.0816747 159.721297,10.7001658 162.706388,10.7001658 C163.821387,10.7001658 165.098975,11.2601374 165.098975,12.5775324 C165.098975,14.191568 161.918132,20.0223224 161.918132,21.3731196 C161.918132,21.9988776 162.442469,22.3614897 162.999969,22.3614897 C164.214547,22.3614897 165.165392,21.2081445 165.493885,21.2081445 C165.558552,21.2081445 165.689544,21.273931 165.689544,21.4064292 C165.689544,21.7023295 163.132711,23.6130982 161.262803,23.6130982 C160.245726,23.6130982 159.163797,23.2180093 159.163797,22.0646641 C159.163797,20.4839381 162.344547,14.883205 162.344547,13.2692619 C162.344547,12.4791765 161.918132,12.1492263 161.164881,12.1492263 C158.179975,12.1492263 154.572625,19.7256819 153.457626,23.4813402 L151.259132,23.4813402 C152.505215,19.3305929 153.915453,15.2458171 155.325783,11.0950698 L157.818042,11.0950698 Z" id="Fill-29"></path>
                    <path d="M177.334421,11.8857936 L173.103247,11.8857936 C172.54584,13.8949181 170.151411,20.2856441 170.151411,21.4064199 C170.151411,22.1304413 170.479996,22.5588399 171.233339,22.5588399 C172.774661,22.5588399 174.185083,20.9122349 174.316168,20.9122349 C174.415747,20.9122349 174.513669,20.9780214 174.513669,21.1097794 C174.513669,21.5046833 171.528578,23.8762349 169.660328,23.8762349 C168.512167,23.8762349 167.528252,23.218 167.528252,21.9988683 C167.528252,21.6697509 170.577918,12.7090961 172.643669,6.41765125 L175.168998,5.79189324 L173.365415,11.0950605 L177.530265,11.0950605 L177.334421,11.8857936 Z" id="Fill-31"></path>
                    <path d="M183.466944,12.0175794 C181.763033,12.0175794 180.252939,15.3448391 179.859778,16.6625117 C181.467794,16.4314726 184.51746,14.5875082 184.51746,12.7750954 C184.51746,12.1491523 184.057698,12.0175794 183.466944,12.0175794 M181.336617,22.4272021 C183.271377,22.4272021 184.353121,21.1421915 185.434773,20.2197929 C185.632367,20.055558 185.796706,19.8247039 185.861281,19.8247039 C185.960952,19.8247039 186.091945,19.8906754 186.091945,19.9564619 C186.091945,20.4180776 182.647368,23.8762626 179.368696,23.8762626 C177.565205,23.8762626 176.383605,22.8556007 176.383605,21.0106185 C176.383605,16.7615153 181.860954,10.7001843 185.370198,10.7001843 C186.418964,10.7001843 186.944959,11.2600633 186.944959,12.2809103 C186.944959,15.1798641 181.827608,16.8274868 179.630864,17.3216719 C179.269024,17.9799068 179.00704,19.1655438 179.00704,19.8581986 C179.00704,21.4064477 179.664027,22.4272021 181.336617,22.4272021" id="Fill-33"></path>
                </g>
            </g>
        </g>
    </g>
</svg>