<svg xmlns="http://www.w3.org/2000/svg" xmlns:xlink="http://www.w3.org/1999/xlink" width="75" height="81" viewBox="0 0 75 81">
    <defs>
        <linearGradient id="c" x1="50%" x2="50%" y1="0%" y2="99.021%">
            <stop offset="0%" stop-opacity="0"/>
            <stop offset="80%" stop-opacity=".02"/>
            <stop offset="100%" stop-opacity=".04"/>
        </linearGradient>
        <linearGradient id="d" x1="50%" x2="50%" y1="0%" y2="100%">
            <stop offset="0%" stop-color="#FFF" stop-opacity=".12"/>
            <stop offset="20%" stop-color="#FFF" stop-opacity=".06"/>
            <stop offset="100%" stop-color="#FFF" stop-opacity="0"/>
        </linearGradient>
        <circle id="b" cx="31.5" cy="31.5" r="31.5"/>
        <filter id="a" width="157.1%" height="157.1%" x="-28.6%" y="-19%" filterUnits="objectBoundingBox">
            <feOffset dy="6" in="SourceAlpha" result="shadowOffsetOuter1"/>
            <feGaussianBlur in="shadowOffsetOuter1" result="shadowBlurOuter1" stdDeviation="3"/>
            <feComposite in="shadowBlurOuter1" in2="SourceAlpha" operator="out" result="shadowBlurOuter1"/>
            <feColorMatrix in="shadowBlurOuter1" result="shadowMatrixOuter1" values="0 0 0 0 0 0 0 0 0 0 0 0 0 0 0 0 0 0 0.24 0"/>
            <feOffset in="SourceAlpha" result="shadowOffsetOuter2"/>
            <feGaussianBlur in="shadowOffsetOuter2" result="shadowBlurOuter2" stdDeviation="3"/>
            <feComposite in="shadowBlurOuter2" in2="SourceAlpha" operator="out" result="shadowBlurOuter2"/>
            <feColorMatrix in="shadowBlurOuter2" result="shadowMatrixOuter2" values="0 0 0 0 0 0 0 0 0 0 0 0 0 0 0 0 0 0 0.12 0"/>
            <feMerge>
                <feMergeNode in="shadowMatrixOuter1"/>
                <feMergeNode in="shadowMatrixOuter2"/>
            </feMerge>
        </filter>
    </defs>
    <g fill="none" fill-rule="evenodd">
        <g transform="translate(6 6)">
            <use fill="#000" filter="url(#a)" xlink:href="#b"/>
            <use fill="#4C565D" xlink:href="#b"/>
            <circle cx="31.5" cy="31.5" r="31.25" stroke="url(#c)" stroke-width=".5"/>
            <circle cx="31.5" cy="31.5" r="31.25" stroke="url(#d)" stroke-width=".5"/>
        </g>
        <g fill="#E7EEF6">
            <path d="M38.6 26c-3.15 0-3.545.014-4.782.07-1.235.056-2.078.252-2.816.539a5.68 5.68 0 0 0-2.054 1.338 5.682 5.682 0 0 0-1.34 2.055c-.285.738-.482 1.58-.538 2.816-.057 1.237-.07 1.632-.07 4.783 0 3.15.013 3.545.07 4.783.056 1.235.253 2.078.539 2.816.297.763.693 1.41 1.339 2.055a5.694 5.694 0 0 0 2.054 1.338c.738.286 1.58.483 2.816.539 1.237.056 1.633.07 4.783.07 3.15 0 3.546-.014 4.783-.07 1.235-.056 2.078-.253 2.816-.54a5.694 5.694 0 0 0 2.054-1.337 5.682 5.682 0 0 0 1.339-2.055c.286-.738.483-1.581.539-2.816.057-1.238.07-1.633.07-4.783 0-3.151-.013-3.546-.07-4.783-.056-1.235-.253-2.078-.54-2.816a5.682 5.682 0 0 0-1.338-2.055 5.68 5.68 0 0 0-2.054-1.338c-.738-.287-1.581-.483-2.816-.54-1.237-.055-1.633-.07-4.783-.07m0 2.09c3.098 0 3.465.013 4.687.069 1.13.05 1.746.24 2.155.4.542.21.928.46 1.334.867.406.406.657.793.868 1.334.158.409.348 1.023.399 2.154.056 1.224.068 1.59.068 4.688s-.012 3.464-.068 4.688c-.051 1.13-.241 1.745-.4 2.154a3.606 3.606 0 0 1-.867 1.334 3.598 3.598 0 0 1-1.334.868c-.41.158-1.024.347-2.155.399-1.222.056-1.59.067-4.687.067-3.098 0-3.465-.011-4.687-.067-1.132-.052-1.746-.241-2.155-.4a3.598 3.598 0 0 1-1.334-.867 3.606 3.606 0 0 1-.868-1.334c-.158-.41-.348-1.023-.4-2.154-.055-1.224-.067-1.59-.067-4.688s.012-3.464.068-4.688c.05-1.131.24-1.745.399-2.154.21-.541.462-.928.868-1.334a3.583 3.583 0 0 1 1.334-.867c.409-.16 1.023-.35 2.155-.4 1.222-.056 1.589-.068 4.687-.068"/>
            <path d="M38.6 41.468a3.867 3.867 0 1 1 0-7.734 3.867 3.867 0 0 1 0 7.734m0-9.824a5.957 5.957 0 1 0 0 11.913 5.957 5.957 0 0 0 0-11.913M44.793 32.8a1.392 1.392 0 1 1 0-2.783 1.392 1.392 0 0 1 0 2.783z"/>
        </g>
    </g>
</svg>
