<svg xmlns="http://www.w3.org/2000/svg" xmlns:xlink="http://www.w3.org/1999/xlink" width="75" height="81" viewBox="0 0 75 81">
    <defs>
        <linearGradient id="c" x1="50%" x2="50%" y1="0%" y2="99.021%">
            <stop offset="0%" stop-opacity="0"/>
            <stop offset="80%" stop-opacity=".02"/>
            <stop offset="100%" stop-opacity=".04"/>
        </linearGradient>
        <linearGradient id="d" x1="50%" x2="50%" y1="0%" y2="100%">
            <stop offset="0%" stop-color="#FFF" stop-opacity=".12"/>
            <stop offset="20%" stop-color="#FFF" stop-opacity=".06"/>
            <stop offset="100%" stop-color="#FFF" stop-opacity="0"/>
        </linearGradient>
        <circle id="b" cx="31.5" cy="31.5" r="31.5"/>
        <filter id="a" width="157.1%" height="157.1%" x="-28.6%" y="-19%" filterUnits="objectBoundingBox">
            <feOffset dy="6" in="SourceAlpha" result="shadowOffsetOuter1"/>
            <feGaussianBlur in="shadowOffsetOuter1" result="shadowBlurOuter1" stdDeviation="3"/>
            <feComposite in="shadowBlurOuter1" in2="SourceAlpha" operator="out" result="shadowBlurOuter1"/>
            <feColorMatrix in="shadowBlurOuter1" result="shadowMatrixOuter1" values="0 0 0 0 0 0 0 0 0 0 0 0 0 0 0 0 0 0 0.24 0"/>
            <feOffset in="SourceAlpha" result="shadowOffsetOuter2"/>
            <feGaussianBlur in="shadowOffsetOuter2" result="shadowBlurOuter2" stdDeviation="3"/>
            <feComposite in="shadowBlurOuter2" in2="SourceAlpha" operator="out" result="shadowBlurOuter2"/>
            <feColorMatrix in="shadowBlurOuter2" result="shadowMatrixOuter2" values="0 0 0 0 0 0 0 0 0 0 0 0 0 0 0 0 0 0 0.12 0"/>
            <feMerge>
                <feMergeNode in="shadowMatrixOuter1"/>
                <feMergeNode in="shadowMatrixOuter2"/>
            </feMerge>
        </filter>
    </defs>
    <g fill="none" fill-rule="evenodd">
        <g transform="translate(6 6)">
            <use fill="#000" filter="url(#a)" xlink:href="#b"/>
            <use fill="#4C565D" xlink:href="#b"/>
            <circle cx="31.5" cy="31.5" r="31.25" stroke="url(#c)" stroke-width=".5"/>
            <circle cx="31.5" cy="31.5" r="31.25" stroke="url(#d)" stroke-width=".5"/>
        </g>
        <path fill="#E7EEF6" d="M35.283 40.845v-7.372l6.895 3.598-6.895 3.774zm15.278-9.498c-.495-1.978-1.423-2.74-3.13-3.016-.984-.145-5.704-.331-9.453-.331-3.75 0-8.468.187-9.453.331-1.707.276-2.635 1.038-3.129 3.016-.167.666-.396 4.31-.396 5.701v.305c0 1.39.23 5.036.396 5.702.494 1.978 1.422 2.74 3.129 3.015.985.145 5.704.331 9.453.331 3.75 0 8.47-.186 9.453-.33 1.707-.275 2.635-1.038 3.13-3.016.165-.666.395-4.311.395-5.702v-.305c0-1.39-.23-5.035-.395-5.701z"/>
    </g>
</svg>
