<?xml version="1.0" encoding="UTF-8"?>
<svg width="233px" height="31px" viewBox="0 0 233 31" version="1.1" xmlns="http://www.w3.org/2000/svg" xmlns:xlink="http://www.w3.org/1999/xlink">
    <!-- Generator: Sketch 47.1 (45422) - http://www.bohemiancoding.com/sketch -->
    <title>logo</title>
    <desc>Created with Sketch.</desc>
    <defs>
        <polygon id="path-1" points="0 0.00793276596 0 25.9260604 25.9110664 25.9260604 25.9110664 0.00793276596 1.38484339e-20 0.00793276596"></polygon>
        <polygon id="path-3" points="12.9778435 0.0912569444 12.9778435 16.9027222 0.0174426087 16.9027222 0.0174426087 0.0912569444 12.9778435 0.0912569444"></polygon>
    </defs>
    <g id="Page-1" stroke="none" stroke-width="1" fill="none" fill-rule="evenodd">
        <g id="T00_hp_mob" transform="translate(-71.000000, -64.000000)">
            <g id="TOP">
                <g id="logo" transform="translate(71.000000, 64.000000)">
                    <g id="Group-5" transform="translate(0.000000, 2.000000)">
                        <mask id="mask-2" fill="white">
                            <use xlink:href="#path-1"></use>
                        </mask>
                        <g id="Clip-4"></g>
                        <path d="M7.31731965,1.1898817 C5.78150306,3.19852 3.84058603,4.81273277 1.82019301,6.27050298 L1.41520611,5.99446043 C2.46644629,3.98571149 3.47669956,1.97696255 4.48695284,0.00793276596 C8.08403581,0.165481702 11.7223328,0.165481702 15.3605162,0.165481702 C18.8780096,0.165481702 22.3935729,0.165481702 25.9110664,0.00793276596 C25.6675293,2.29161787 25.3853895,4.61646043 25.3058,6.93997532 L24.7391362,6.93997532 C23.6880096,5.12871574 23.0007694,3.15869021 22.516193,1.1898817 L17.0190664,1.1898817 C16.3319397,3.35606894 9.21713624,22.9327413 9.21713624,23.4050562 C9.21713624,24.5478391 13.9065598,25.2562562 14.8759397,25.3749711 L14.8759397,25.9260604 C13.6630227,25.8085626 9.41957293,25.7685115 6.67106638,25.7685115 C4.44812314,25.7685115 2.22290917,25.8085626 -3.40611354e-05,25.9260604 L-3.40611354e-05,25.3749711 C1.61764279,25.0589881 3.39688297,24.8229966 4.81007948,24.0359157 C5.86109258,23.4449966 12.5323066,3.47367745 13.2582629,1.1898817 L7.31731965,1.1898817 Z" id="Fill-3" fill="#FEFEFE" mask="url(#mask-2)"></path>
                    </g>
                    <path d="M27.7211315,14.5997416 C25.6216103,14.5997416 23.765083,18.6401059 23.2788685,20.2401845 C25.2578566,19.9596287 29.0118448,17.7204623 29.0118448,15.5196098 C29.0118448,14.7595135 28.4461443,14.5997416 27.7211315,14.5997416 M25.0966166,27.2403741 C27.4781376,27.2403741 28.8096713,25.6799576 30.1434727,24.5598688 C30.3844255,24.3604348 30.5865991,24.0801036 30.668353,24.0801036 C30.7888861,24.0801036 30.950126,24.1602143 30.950126,24.2401003 C30.950126,24.8006503 26.7123045,29 22.6743888,29 C20.4543345,29 19,27.7605879 19,25.5201857 C19,20.3604067 25.74203,13 30.0617188,13 C31.3545866,13 32,13.6798733 32,14.9195101 C32,18.439773 25.7010964,20.4405174 22.9970955,21.0406171 C22.5538557,21.8399261 22.231149,23.2796711 22.231149,24.1207769 C22.231149,26.0008497 23.0378023,27.2403741 25.0966166,27.2403741" id="Fill-6" fill="#FEFEFE"></path>
                    <path d="M35.687579,23.4661281 C35.725345,23.5930638 35.7630065,23.7189338 35.7630065,23.971621 C35.7630065,24.8994829 34.9809037,25.6161011 34.1612441,25.9530964 C34.1612441,27.8502638 34.9433469,28.8196877 36.5826661,28.8196877 C38.8911037,28.8196877 40.2326882,26.5010986 40.568189,23.887313 C40.8281576,21.8643941 40.8281576,19.755983 41.0146864,17.6905548 L35.687579,23.4661281 Z M35.5764777,22.9607536 C40.6793948,17.6488744 43.1363859,13.727604 44.2182111,12.5056113 C44.3669738,12.3369953 44.6269424,12 44.7380437,12 C44.8134712,12 45,12.0416804 45,12.3786756 C45,12.5470549 44.2537802,14.149973 43.9938116,15.1609589 C43.6960769,16.2570816 43.7696214,18.0700593 43.620754,20.2625416 C43.2852533,25.1520518 38.3334004,30 35.4276103,30 C33.2682493,30 32,28.566882 32,26.1214757 C32,24.6039312 32.4485897,22.159709 34.1990102,22.159709 C34.8679194,22.159709 35.1298757,22.454195 35.5764777,22.9607536 L35.5764777,22.9607536 Z" id="Fill-8" fill="#FEFEFE"></path>
                    <path d="M50.9921205,25.7600683 C50.9921205,27.3203725 51.7216485,28.0409191 53.1399837,28.0409191 C56.6678311,28.0409191 59.0079872,19.2402056 59.0079872,16.5597003 C59.0079872,14.9995084 58.2802906,14.279973 56.8599086,14.279973 C53.3321689,14.279973 50.9921205,23.0804618 50.9921205,25.7600683 M51.2987119,29 C48.6518568,29 48,27.4801444 48,25.3198528 C48,19.9596287 54.7893935,13 58.7013958,13 C61.3480355,13 62,14.5196309 62,16.6801472 C62,22.0403713 56.2466181,29 51.2987119,29" id="Fill-10" fill="#FEFEFE"></path>
                    <path d="M69.348071,13.494357 L72.5665868,13.494357 L70.1728523,19.4737829 L70.260912,19.5561371 C71.651303,17.2882108 74.0009466,13 77.2609884,13 C78.8714676,13 80,13.9898722 80,15.5566873 C80,16.7114996 79.4369552,18.2784305 77.9145357,18.2784305 C76.9576037,18.2784305 76.2622861,17.6597893 76.2622861,16.7520397 C76.2622861,16.2576827 76.5219462,15.8039816 76.783927,15.3917472 C76.3921162,15.0205162 75.738691,14.9788178 75.2174165,14.9788178 C71.5654417,14.9788178 67.8256515,26.2366743 66.9567793,29 L64,29 L69.348071,13.494357 Z" id="Fill-12" fill="#FEFEFE"></path>
                    <path d="M90,3.78107782 C90,4.9819587 89.0668916,6.05916816 87.9641921,6.05916816 C86.7348948,6.05916816 86.0142517,5.56238833 86.0142517,4.27785765 C86.0142517,3.07697677 86.9473601,2 88.0500595,2 C89.2793569,2 90,2.49771056 90,3.78107782 L90,3.78107782 Z M86.3531957,13.4325674 C85.4200873,16.5391283 81.5630806,24.159754 81.5630806,26.7277683 C81.5630806,27.5567042 82.4939262,28.0952508 83.3006749,28.0952508 C85.5059547,28.0952508 87.4558952,25.1540117 87.9211989,25.1540117 C88.09079,25.1540117 88.1335451,25.2367308 88.1335451,25.4024016 C88.1335451,25.9408318 84.1909091,30 81.1813815,30 C79.8232235,30 78,29.1722275 78,27.5984709 C78,26.8104874 80.2479158,21.5925541 83.0883287,13.4325674 L86.3531957,13.4325674 Z" id="Fill-14" fill="#FEFEFE"></path>
                    <path d="M110.943981,13.0116429 C111.24298,13.0116429 111.286554,13.0943966 111.286554,13.2599039 C111.286554,13.4663806 110.857194,13.5491342 109.914096,13.8815455 C105.499769,15.4141756 101.343275,21.0084849 101.343275,25.5251345 C101.343275,26.8512879 101.601589,28.6740794 103.357546,28.6740794 C109.100997,28.6740794 112.999298,11.3533111 112.999298,7.16872355 C112.999298,3.93597747 111.928246,0.579508289 107.943159,0.579508289 C103.142926,0.579508289 101.386849,4.88875008 100.872869,4.88875008 C100.701583,4.88875008 100.614796,4.80588005 100.614796,4.64025637 C100.614796,4.22625537 103.400999,0 108.329065,0 C113.68649,0 116,4.22625537 116,8.95077846 C116,18.812429 107.513919,30 101.601589,30 C99.1146256,30 98,28.1773248 98,25.9391355 C98,17.6940327 108.372639,13.0116429 110.943981,13.0116429" id="Fill-16" fill="#FEFEFE"></path>
                    <path d="M119,8.6399752 C121.021762,7.63085312 123.572857,6.18964056 123.572857,4.06279179 C123.572857,3.3064057 122.691994,2.65821936 121.813601,2.54971596 L121.813601,2.44121257 C122.781019,1.68472526 123.70411,1 125.109491,1 C126.165934,1 127,1.72106175 127,2.58625489 C127,5.68467465 122.385038,7.88328547 119.35153,9 L119,8.6399752 Z" id="Fill-18" fill="#FEFEFE"></path>
                    <path d="M141.413182,3.09301881 C134.135823,3.09301881 129.84339,18.3909143 129.84339,23.6450541 C129.84339,26.8812587 130.865163,29.655182 134.462556,29.655182 C141.864062,29.655182 146.15661,14.356106 146.15661,9.10314663 C146.15661,5.86670602 145.134378,3.09301881 141.413182,3.09301881 M150,10.1119963 C150,18.7266466 141.986027,31 132.828432,31 C128.085004,31 126,27.5533135 126,22.8880037 C126,14.2721729 134.013743,2 143.171568,2 C147.914651,2 150,5.44668648 150,10.1119963" id="Fill-20" fill="#FEFEFE"></path>
                    <path d="M155.347214,13.494357 L158.565288,13.494357 L156.174202,19.4737829 L156.26225,19.5561371 C157.652572,17.2882108 159.99945,13 163.261487,13 C164.869547,13 166,13.9898722 166,15.5566873 C166,16.7114996 165.434712,18.2784305 163.912502,18.2784305 C162.955701,18.2784305 162.260724,17.6597893 162.260724,16.7520397 C162.260724,16.2576827 162.522546,15.8039816 162.782049,15.3917472 C162.392612,15.0205162 161.739399,14.9788178 161.218074,14.9788178 C157.566723,14.9788178 153.827446,26.2366743 152.956251,29 L150,29 L155.347214,13.494357 Z" id="Fill-22" fill="#FEFEFE"></path>
                    <path d="M178,3.78107782 C178,4.9819587 177.068997,6.05916816 175.966112,6.05916816 C174.736607,6.05916816 174.015842,5.56238833 174.015842,4.27785765 C174.015842,3.07697677 174.946964,2 176.049611,2 C177.279116,2 178,2.49771056 178,3.78107782 L178,3.78107782 Z M174.354724,13.4325674 C173.421459,16.5391283 169.561538,24.159754 169.561538,26.7277683 C169.561538,27.5567042 170.494804,28.0952508 171.299425,28.0952508 C173.505077,28.0952508 175.45761,25.1540117 175.922992,25.1540117 C176.092612,25.1540117 176.135493,25.2367308 176.135493,25.4024016 C176.135493,25.9408318 172.191954,30 169.179774,30 C167.82365,30 166,29.1722275 166,27.5984709 C166,26.8104874 168.246389,21.5925541 171.089306,13.4325674 L174.354724,13.4325674 Z" id="Fill-24" fill="#FEFEFE"></path>
                    <path d="M182.721284,14.5997416 C180.621386,14.5997416 178.765053,18.6401059 178.280984,20.2401845 C180.257966,19.9596287 184.01202,17.7204623 184.01202,15.5196098 C184.01202,14.7595135 183.448237,14.5997416 182.721284,14.5997416 M180.096723,27.2403741 C182.478059,27.2403741 183.811883,25.6799576 185.143554,24.5598688 C185.384397,24.3604348 185.586688,24.0801036 185.668557,24.0801036 C185.788865,24.0801036 185.950335,24.1602143 185.950335,24.2401003 C185.950335,24.8006503 181.712439,29 177.674226,29 C175.454133,29 174,27.7605879 174,25.5201857 C174,20.3604067 180.742034,13 185.061912,13 C186.354802,13 187,13.6798733 187,14.9195101 C187,18.439773 180.703141,20.4405174 177.996938,21.0406171 C177.554031,21.8399261 177.231205,23.2796711 177.231205,24.1207769 C177.231205,26.0008497 178.037873,27.2403741 180.096723,27.2403741" id="Fill-26" fill="#FEFEFE"></path>
                    <path d="M197.181359,13.4893128 L194.319187,21.2445991 L194.399736,21.3259983 C195.956355,18.428987 199.555413,13 203.278913,13 C204.669724,13 206.263343,13.6938427 206.263343,15.3261846 C206.263343,17.3260843 202.29567,24.550785 202.29567,26.2245144 C202.29567,26.999871 202.94971,27.449172 203.645116,27.449172 C205.160139,27.449172 206.34619,26.020099 206.755942,26.020099 C206.836605,26.020099 207,26.1016129 207,26.2657872 C207,26.6324279 203.810694,29 201.478235,29 C200.209568,29 198.860007,28.5104579 198.860007,27.0813849 C198.860007,25.1227581 202.827566,18.1830695 202.827566,16.1832845 C202.827566,15.204315 202.29567,14.7954843 201.356091,14.7954843 C197.632821,14.7954843 193.133137,24.1832272 191.742325,28.8367429 L189,28.8367429 C190.554321,23.6936851 192.313404,18.6323705 194.072601,13.4893128 L197.181359,13.4893128 Z" id="Fill-28" fill="#FEFEFE"></path>
                    <path d="M221.745455,15.7503351 L216.246035,15.7503351 C215.521551,18.3055769 212.40942,26.4334203 212.40942,27.8588437 C212.40942,28.7796674 212.836495,29.3245127 213.815644,29.3245127 C215.81896,29.3245127 217.652139,27.23033 217.822515,27.23033 C217.951942,27.23033 218.079215,27.3139985 218.079215,27.4815707 C218.079215,27.9838168 214.199377,31 211.771141,31 C210.278832,31 209,30.1628447 209,28.6123305 C209,28.1937529 212.963768,16.7974265 215.648704,8.7958506 L218.930971,8 L216.586786,14.7446662 L222,14.7446662 L221.745455,15.7503351 Z" id="Fill-30" fill="#FEFEFE"></path>
                    <g id="Group-34" transform="translate(220.000000, 13.000000)">
                        <mask id="mask-4" fill="white">
                            <use xlink:href="#path-3"></use>
                        </mask>
                        <g id="Clip-33"></g>
                        <path d="M8.70980783,1.77213194 C6.61884261,1.77213194 4.76572087,6.01740972 4.2832513,7.69863889 C6.25653826,7.40385417 9.99895565,5.051125 9.99895565,2.73865278 C9.99895565,1.94000694 9.43475565,1.77213194 8.70980783,1.77213194 M6.09556435,15.0538542 C8.46981652,15.0538542 9.79728609,13.4142986 11.1246426,12.2374028 C11.3671209,12.0278542 11.5687904,11.7333056 11.6480339,11.7333056 C11.770347,11.7333056 11.9310948,11.8174792 11.9310948,11.9014167 C11.9310948,12.4903958 7.70406,16.9027222 3.68061652,16.9027222 C1.4674513,16.9027222 0.0174426087,15.6004514 0.0174426087,13.2464236 C0.0174426087,7.82495833 6.73900783,0.0912569444 11.0453991,0.0912569444 C12.3323991,0.0912569444 12.9778774,0.805611111 12.9778774,2.10811806 C12.9778774,5.80691667 6.69808609,7.90913194 4.00233826,8.53966667 C3.55830348,9.37951389 3.23680783,10.8922778 3.23680783,11.7760417 C3.23680783,13.7514653 4.04303391,15.0538542 6.09556435,15.0538542" id="Fill-32" fill="#FEFEFE" mask="url(#mask-4)"></path>
                    </g>
                </g>
            </g>
        </g>
    </g>
</svg>